<svg xmlns="http://www.w3.org/2000/svg" viewBox="0 0 980 440" font-family="-apple-system, 'Helvetica Neue', Arial, sans-serif">
  <defs>
    <marker id="ar3" viewBox="0 0 10 10" markerWidth="7" markerHeight="7" refX="9" refY="5" orient="auto">
      <path d="M0,0 L10,5 L0,10 z" fill="#2f855a"/>
    </marker>
  </defs>

  <!-- LEFT: monolith -->
  <text x="40" y="44" font-size="17" font-weight="700" fill="#1f2933">One large instruction file</text>
  <text x="40" y="68" font-size="13" fill="#52606d">everything loaded into context, every task</text>

  <rect x="40" y="84" width="380" height="296" rx="10" fill="#fdebd9" stroke="#dd6b20" stroke-width="2"/>
  <g font-size="14" fill="#1f2933">
    <rect x="60" y="100" width="340" height="38" rx="6" fill="#ffffff" stroke="#e0b48a"/><text x="74" y="124">project layout &amp; conventions</text>
    <rect x="60" y="146" width="340" height="38" rx="6" fill="#ffffff" stroke="#e0b48a"/><text x="74" y="170">how we cut a release</text>
    <rect x="60" y="192" width="340" height="38" rx="6" fill="#ffffff" stroke="#e0b48a"/><text x="74" y="216">data-cleaning playbook</text>
    <rect x="60" y="238" width="340" height="38" rx="6" fill="#ffffff" stroke="#e0b48a"/><text x="74" y="262">pull-request review checklist</text>
    <rect x="60" y="284" width="340" height="38" rx="6" fill="#ffffff" stroke="#e0b48a"/><text x="74" y="308">deployment notes</text>
    <rect x="60" y="330" width="340" height="38" rx="6" fill="#ffffff" stroke="#e0b48a"/><text x="74" y="354">API-audit procedure</text>
  </g>
  <text x="230" y="404" text-anchor="middle" font-size="13" fill="#dd6b20" font-weight="700">heavy: all of it in the window even to rename a variable</text>

  <!-- divider -->
  <line x1="490" y1="84" x2="490" y2="380" stroke="#e2e8f0" stroke-width="1.5"/>

  <!-- RIGHT: core + skills -->
  <text x="560" y="44" font-size="17" font-weight="700" fill="#1f2933">Small core + skills on demand</text>
  <text x="560" y="68" font-size="13" fill="#52606d">stable core always loaded; playbooks load only when relevant</text>

  <rect x="560" y="84" width="380" height="96" rx="10" fill="#e3f3ea" stroke="#2f855a" stroke-width="2"/>
  <text x="580" y="112" font-size="14" font-weight="700" fill="#1f2933">core instruction file (always loaded)</text>
  <text x="580" y="138" font-size="13" fill="#52606d">project layout · conventions · do-not-touch</text>
  <text x="580" y="160" font-size="13" fill="#52606d">small &amp; stable → cheap to cache</text>

  <!-- skill cards, dimmed = not loaded -->
  <g font-size="13">
    <rect x="560" y="210" width="118" height="64" rx="8" fill="#f7fafc" stroke="#cbd5e0"/>
    <text x="619" y="238" text-anchor="middle" fill="#52606d">release</text>
    <text x="619" y="257" text-anchor="middle" fill="#9aa5b1" font-size="11">skill</text>

    <rect x="691" y="210" width="118" height="64" rx="8" fill="#e3f3ea" stroke="#2f855a" stroke-width="2"/>
    <text x="750" y="238" text-anchor="middle" fill="#1f2933" font-weight="700">R analysis</text>
    <text x="750" y="257" text-anchor="middle" fill="#2f855a" font-size="11">loaded now ✓</text>

    <rect x="822" y="210" width="118" height="64" rx="8" fill="#f7fafc" stroke="#cbd5e0"/>
    <text x="881" y="238" text-anchor="middle" fill="#52606d">API audit</text>
    <text x="881" y="257" text-anchor="middle" fill="#9aa5b1" font-size="11">skill</text>
  </g>

  <line x1="750" y1="180" x2="750" y2="206" stroke="#2f855a" stroke-width="2" marker-end="url(#ar3)"/>
  <text x="750" y="316" text-anchor="middle" font-size="14" fill="#1f2933">task: "run a reproducible R analysis"</text>
  <text x="750" y="338" text-anchor="middle" font-size="13" fill="#2f855a" font-weight="700">→ only the matching skill enters the context</text>
  <text x="750" y="372" text-anchor="middle" font-size="13" fill="#52606d">core stays small; the other playbooks cost nothing until needed</text>
</svg>
